<svg width="1000" height="1000" viewBox="0 0 1000 1000" fill="none" xmlns="http://www.w3.org/2000/svg">
    <rect width="1000" height="1000" fill="#E8E3CD"/>
    <path d="M426.98 312.585C426.98 468.495 553.505 594.886 709.582 594.886C729.581 594.886 749.095 592.811 767.92 588.864C771.002 588.218 773.654 591.168 772.555 594.12C732.565 701.502 629.026 778 507.602 778C351.525 778 225 651.61 225 495.699C225 364.811 314.171 254.728 435.138 222.764C438.184 221.96 440.863 224.887 439.918 227.891C431.512 254.627 426.98 283.078 426.98 312.585Z"
          fill="#FCC135"/>
    <path d="M222.52 610.48C204.387 610.48 188.6 606.107 175.16 597.36C161.933 588.613 151.693 576.133 144.44 559.92C137.187 543.707 133.56 524.507 133.56 502.32C133.56 485.893 135.587 470.853 139.64 457.2C143.907 443.547 150.307 431.707 158.84 421.68C167.373 411.653 178.147 403.973 191.16 398.64C204.173 393.093 219.427 390.32 236.92 390.32C251.427 390.32 264.013 392.24 274.68 396.08C285.56 399.707 294.52 404.933 301.56 411.76C308.813 418.373 314.04 426.16 317.24 435.12C320.653 443.867 322.04 453.573 321.4 464.24L272.76 472.88C272.973 463.707 271.48 456.24 268.28 450.48C265.293 444.507 260.92 440.133 255.16 437.36C249.4 434.373 242.68 432.88 235 432.88C225.187 432.88 216.76 435.333 209.72 440.24C202.68 445.147 197.24 452.613 193.4 462.64C189.56 472.453 187.64 484.827 187.64 499.76C187.64 510.853 188.707 520.773 190.84 529.52C193.187 538.053 196.493 545.307 200.76 551.28C205.027 557.04 210.36 561.413 216.76 564.4C223.16 567.387 230.52 568.88 238.84 568.88C247.373 568.88 254.627 567.493 260.6 564.72C266.573 561.947 271.16 557.893 274.36 552.56C277.773 547.227 279.48 540.933 279.48 533.68H244.92V497.2H327.16V537.2V606H291.96L291.64 550.32H287.48C285.773 563.333 282.147 574.32 276.6 583.28C271.267 592.24 264.12 599.067 255.16 603.76C246.2 608.24 235.32 610.48 222.52 610.48ZM398.148 606V537.2L326.148 394.8H387.588L423.748 490.8H424.708L460.548 394.8H521.668L449.988 537.2V606H398.148ZM611.568 610.48C597.061 610.48 584.154 608.88 572.848 605.68C561.754 602.48 552.368 597.893 544.688 591.92C537.221 585.947 531.461 578.587 527.408 569.84C523.568 561.093 521.648 551.28 521.648 540.4L568.688 528.24C569.114 537.84 571.354 545.627 575.408 551.6C579.461 557.573 584.794 562.053 591.408 565.04C598.234 567.813 605.914 569.2 614.448 569.2C621.488 569.2 627.674 568.347 633.008 566.64C638.341 564.933 642.394 562.587 645.168 559.6C648.154 556.4 649.648 552.773 649.648 548.72C649.648 543.813 647.728 539.76 643.888 536.56C640.048 533.36 634.714 530.587 627.888 528.24C621.061 525.893 613.168 523.547 604.208 521.2C594.608 518.64 585.114 515.867 575.728 512.88C566.341 509.893 557.701 506.053 549.808 501.36C542.128 496.453 535.941 490.267 531.248 482.8C526.768 475.333 524.528 465.947 524.528 454.64C524.528 441.2 527.941 429.68 534.768 420.08C541.594 410.48 551.194 403.12 563.568 398C575.941 392.88 590.554 390.32 607.408 390.32C624.688 390.32 639.834 393.093 652.848 398.64C665.861 404.187 675.888 412.187 682.928 422.64C689.968 433.093 693.061 445.68 692.208 460.4L645.168 470C645.381 463.6 644.634 458.053 642.928 453.36C641.221 448.453 638.661 444.4 635.248 441.2C632.048 437.787 627.994 435.227 623.088 433.52C618.394 431.6 612.741 430.64 606.128 430.64C599.088 430.64 593.114 431.6 588.208 433.52C583.514 435.227 579.888 437.573 577.328 440.56C574.981 443.547 573.808 446.96 573.808 450.8C573.808 455.493 575.621 459.44 579.248 462.64C583.088 465.627 588.421 468.293 595.248 470.64C602.074 472.773 609.861 475.013 618.608 477.36C627.781 479.707 637.061 482.373 646.448 485.36C656.048 488.347 664.901 492.293 673.008 497.2C681.114 502.107 687.621 508.613 692.528 516.72C697.434 524.613 699.888 534.64 699.888 546.8C699.888 560.453 696.261 572.08 689.007 581.68C681.754 591.067 671.514 598.213 658.288 603.12C645.061 608.027 629.488 610.48 611.568 610.48ZM764.09 606V394.8H815.93V606H764.09ZM709.05 438.64V394.8H871.29V438.64H709.05Z"
          fill="#1D1C14"/>
</svg>
